<svg xmlns="http://www.w3.org/2000/svg" fill="none" viewBox="0 0 18 18"><circle cx="9" cy="9" r="9" fill="#eff2f9"/><circle cx="9" cy="9" r="8.5" stroke="#fff" stroke-opacity=".5"/><path fill="#000" d="M9.09716 4.5c.8568 0 1.54144.2352 2.05384.7056.5208.4704.7812 1.113.7812 1.9278 0 .8484-.2688 1.4868-.8064 1.9152-.5376.4284-1.25164.6426-2.14204.6426l-.0504.9954h-1.2474l-.063-1.9782h.4158c.8148 0 1.4364-.1092 1.8648-.3276.43684-.2184.65524-.6342.65524-1.2474 0-.4452-.1302-.7938-.3906-1.0458-.25204-.252-.60484-.378-1.05844-.378s-.8106.1218-1.071.3654c-.2604.2436-.3906.5838-.3906 1.0206h-1.3482c0-.504.1134-.9534.3402-1.3482.2268-.3948.5502-.7014.9702-.9198.4284-.2184.924-.3276 1.4868-.3276Zm-.8064 8.9712c-.2604 0-.4788-.0882-.6552-.2646s-.2646-.3948-.2646-.6552.0882-.4788.2646-.6552.3948-.2646.6552-.2646c.252 0 .4662.0882.6426.2646.1764.1764.2646.3948.2646.6552s-.0882.4788-.2646.6552-.3906.2646-.6426.2646Z"/></svg>